<svg xmlns="http://www.w3.org/2000/svg" width="36" height="40" viewBox="0 0 25 40" fill="none">
  <path d="M12.5 0C5.61674 0 0 5.24179 0 11.7274C0 13.5812 0.469126 15.4087 1.36609 17.0584C1.37008 17.0653 1.37424 17.0722 1.37856 17.0789C1.58802 17.459 1.76255 17.878 2.08446 18.3157L12.1034 33.7943C12.1517 33.8687 12.2182 33.9299 12.2969 33.9721C12.3756 34.0144 12.4638 34.0365 12.5535 34.0362C12.6432 34.036 12.7313 34.0135 12.8097 33.9707C12.8882 33.928 12.9544 33.8665 13.0022 33.7919L22.8441 18.394L22.8258 18.4202C23.1373 17.9917 23.4122 17.4593 23.6306 17.0623C23.6309 17.0618 23.6312 17.0613 23.6314 17.0607C24.5346 15.4104 24.9957 13.5821 25 11.7293C25 11.729 25 11.7288 25 11.7285C24.9998 5.27509 19.436 0.0617782 12.5997 0.0102649C12.5673 0.00401242 12.5345 0.000726322 12.5015 0.000448932C12.501 0.00044808 12.5004 0.00044808 12.4999 0.000448932L12.5 0ZM12.4991 1.04702H12.5C18.8357 1.04702 23.9357 5.83733 23.9357 11.7283C23.9314 13.4115 23.5135 15.0681 22.6943 16.5651V16.5634C22.4672 16.9763 22.1961 17.4863 21.9601 17.8109C21.9541 17.8194 21.9482 17.8281 21.9427 17.837L12.5491 32.5346L2.96477 17.7277C2.95894 17.7188 2.95284 17.7101 2.94648 17.7015C2.70836 17.3778 2.54969 17.0077 2.3046 16.5654C2.30432 16.5651 2.30405 16.5648 2.30377 16.5645L2.30294 16.5629C1.48801 15.0636 1.06405 13.4074 1.06405 11.7278C1.0642 5.83726 6.1638 1.04744 12.4991 1.04702ZM12.5 4.69931C8.72609 4.69931 5.65548 7.7202 5.65548 11.4329C5.65548 15.1456 8.72613 18.1665 12.5 18.1665C16.2738 18.1665 19.3444 15.1456 19.3444 11.4329C19.3444 7.7202 16.2738 4.69931 12.5 4.69931ZM12.5 5.74632C15.6987 5.74632 18.2802 8.28605 18.2802 11.4329C18.2802 14.5797 15.6986 17.1194 12.5 17.1194C9.30126 17.1194 6.71975 14.5797 6.71975 11.4329C6.71975 8.28605 9.3013 5.74632 12.5 5.74632ZM12.5 34.9334C9.29951 34.9334 6.40345 35.158 4.27705 35.5297C3.21381 35.7156 2.34602 35.9344 1.70039 36.2013C1.37758 36.3347 1.10887 36.4772 0.888062 36.6659C0.667245 36.8545 0.470672 37.1289 0.470672 37.4667C0.470672 37.8045 0.667245 38.078 0.888062 38.2667C1.10888 38.4553 1.37758 38.5979 1.70039 38.7313C2.34602 38.9982 3.21381 39.2178 4.27705 39.4037C6.40357 39.7755 9.29951 40 12.5 40C15.7004 40 18.5965 39.7754 20.7229 39.4037C21.7861 39.2178 22.6548 38.9982 23.3004 38.7313C23.6232 38.5979 23.8919 38.4553 24.1127 38.2667C24.3335 38.078 24.5293 37.8045 24.5293 37.4667C24.5293 37.1289 24.3335 36.8545 24.1127 36.6659C23.8919 36.4772 23.6232 36.3347 23.3004 36.2013C22.6548 35.9344 21.7861 35.7156 20.7229 35.5297C18.5963 35.1579 15.7004 34.9334 12.5 34.9334ZM12.5 35.9804C15.6493 35.9804 18.502 36.2055 20.5368 36.5612C21.5542 36.739 22.3702 36.9532 22.8882 37.1673C23.1472 37.2744 23.3298 37.3838 23.4153 37.4569C23.4229 37.4633 23.4195 37.4614 23.4253 37.4667C23.4195 37.472 23.4229 37.4701 23.4153 37.4765C23.3298 37.5496 23.1472 37.659 22.8882 37.7661C22.3702 37.9802 21.5542 38.1944 20.5368 38.3722C18.5021 38.7279 15.6493 38.953 12.5 38.953C9.3506 38.953 6.49795 38.7279 4.46309 38.3722C3.44574 38.1944 2.63056 37.9802 2.11256 37.7661C1.85357 37.659 1.67093 37.5496 1.58541 37.4765C1.57787 37.4701 1.58121 37.472 1.57543 37.4667C1.58121 37.4614 1.57787 37.4633 1.58541 37.4569C1.6709 37.3838 1.85356 37.2744 2.11256 37.1673C2.63051 36.9532 3.44574 36.739 4.46309 36.5612C6.49778 36.2055 9.3506 35.9804 12.5 35.9804Z" fill="rgb(30, 34, 170)"/>
</svg>