<svg xmlns="http://www.w3.org/2000/svg" width="30" height="19" viewBox="0 0 30 19" fill="none">
<path d="M2.04545 0C0.924102 0 0 0.924102 0 2.04545V16.3636C0 17.485 0.924102 18.4091 2.04545 18.4091H27.9545C29.0759 18.4091 30 17.485 30 16.3636V2.04545C30 0.924102 29.0759 0 27.9545 0H2.04545ZM2.46095 1.36364H27.539L15.6286 11.7081C15.3247 11.972 14.6753 11.972 14.3714 11.7081L2.46095 1.36364ZM1.36364 2.21591L9.75852 9.51347L1.36364 16.2358V2.21591ZM28.6364 2.21591V16.2358L20.2415 9.51347L28.6364 2.21591ZM10.8026 10.419L13.4765 12.7415C14.3458 13.4966 15.6542 13.4966 16.5235 12.7415L19.1974 10.419L27.4645 17.0455H2.53551L10.8026 10.419Z" fill="#1E22AA"/>
</svg>