<svg xmlns="http://www.w3.org/2000/svg" width="22" height="22" viewBox="0 0 22 22" fill="none">
<path d="M15.9239 20.8762C12.3571 19.962 9.10145 18.1059 6.49777 15.5022C3.89409 12.8985 2.03804 9.64294 1.12384 6.07607C0.425238 3.33166 2.7851 0.999999 5.61796 0.999999L6.8998 0.999999C7.60737 0.999999 8.17522 1.57554 8.24572 2.27927C8.36077 3.44641 8.6364 4.59208 9.06482 5.68383L7.11643 7.63222C8.63713 10.8047 11.1953 13.3629 14.3678 14.8836L16.3162 12.9352C17.4079 13.364 18.5535 13.6401 19.7207 13.7556C20.4257 13.8248 21 14.3926 21 15.1002L21 16.382C21 19.2149 18.6683 21.5748 15.9239 20.8762Z" stroke="#1E22AA" stroke-width="2" stroke-linecap="round" stroke-linejoin="round"/>
</svg>