<svg xmlns="http://www.w3.org/2000/svg" width="48" height="48" viewBox="0 0 48 48" fill="none">
	<circle cx="24" cy="24" r="23.5" stroke="#1E22AA"/>
	<path fill-rule="evenodd" clip-rule="evenodd" d="M31.5 12H16.5C14.0147 12 12 14.0147 12 16.5V31.5C12 33.9853 14.0147 36 16.5 36H31.5C33.9853 36 36 33.9853 36 31.5V16.5C36 14.0147 33.9853 12 31.5 12ZM30.8905 24.9253H28.6453V33.2368H24.8937V24.9253H23.4379V22.1242H24.8937V20.34C24.8937 18.0032 25.8663 16.6137 28.62 16.6137H31.4116V19.4021H29.7884C28.7147 19.4021 28.6453 19.8032 28.6453 20.5484L28.6421 22.1211H31.1937L30.8874 24.9221L30.8905 24.9253Z" fill="#1E22AA"/>
</svg>