<svg xmlns="http://www.w3.org/2000/svg" width="48" height="48" viewBox="0 0 48 48" fill="none">
	<circle cx="24" cy="24" r="23.5" stroke="#1E22AA"/>
	<path d="M21.0935 23.4574C21.0935 21.5496 22.6398 20.0026 24.5476 20.0026C26.4555 20.0026 28.0026 21.5496 28.0026 23.4574C28.0026 25.3652 26.4555 26.9122 24.5476 26.9122C22.6398 26.9122 21.0935 25.3652 21.0935 23.4574ZM19.2258 23.4574C19.2258 26.3965 21.6084 28.779 24.5476 28.779C27.4869 28.779 29.8695 26.3965 29.8695 23.4574C29.8695 20.5182 27.4869 18.1358 24.5476 18.1358C21.6084 18.1358 19.2258 20.5182 19.2258 23.4574ZM28.8364 17.9248C28.8364 18.6113 29.3931 19.1688 30.0804 19.1688C30.7669 19.1688 31.3245 18.6113 31.3245 17.9248C31.3245 17.2384 30.7678 16.6817 30.0804 16.6817C29.3931 16.6817 28.8364 17.2384 28.8364 17.9248ZM20.3602 31.8931C19.3497 31.8471 18.8005 31.6788 18.4355 31.5365C17.9517 31.3481 17.6067 31.1238 17.2434 30.7613C16.8809 30.3988 16.6557 30.0539 16.4682 29.5701C16.3259 29.2051 16.1576 28.6559 16.1116 27.6455C16.0613 26.5531 16.0513 26.2249 16.0513 23.4574C16.0513 20.6898 16.0622 20.3625 16.1116 19.2692C16.1576 18.2588 16.3267 17.7105 16.4682 17.3447C16.6566 16.8608 16.8809 16.5159 17.2434 16.1526C17.6059 15.7901 17.9508 15.5649 18.4355 15.3774C18.8005 15.2351 19.3497 15.0669 20.3602 15.0208C21.4527 14.9706 21.7808 14.9605 24.5476 14.9605C27.3153 14.9605 27.6426 14.9714 28.736 15.0208C29.7464 15.0669 30.2948 15.236 30.6606 15.3774C31.1445 15.5649 31.4894 15.7901 31.8527 16.1526C32.2152 16.5151 32.4396 16.8608 32.6279 17.3447C32.7702 17.7097 32.9385 18.2588 32.9846 19.2692C33.0348 20.3625 33.0448 20.6898 33.0448 23.4574C33.0448 26.2241 33.0348 26.5522 32.9846 27.6455C32.9385 28.6559 32.7694 29.2051 32.6279 29.5701C32.4396 30.0539 32.2152 30.3988 31.8527 30.7613C31.4902 31.1238 31.1445 31.3481 30.6606 31.5365C30.2956 31.6788 29.7464 31.8471 28.736 31.8931C27.6435 31.9433 27.3153 31.9534 24.5476 31.9534C21.7808 31.9534 21.4527 31.9433 20.3602 31.8931ZM20.2748 13.1565C19.1714 13.2068 18.418 13.3817 17.7591 13.6379C17.0777 13.9024 16.5 14.2574 15.9232 14.8333C15.3472 15.4092 14.9923 15.9869 14.7277 16.6691C14.4716 17.3279 14.2966 18.0814 14.2464 19.1847C14.1953 20.2897 14.1836 20.643 14.1836 23.4574C14.1836 26.2718 14.1953 26.6251 14.2464 27.7301C14.2966 28.8334 14.4716 29.5868 14.7277 30.2457C14.9923 30.9271 15.3464 31.5055 15.9232 32.0815C16.4992 32.6574 17.0768 33.0115 17.7591 33.2769C18.4188 33.5331 19.1714 33.708 20.2748 33.7582C21.3807 33.8085 21.7331 33.821 24.5476 33.821C27.363 33.821 27.7155 33.8093 28.8205 33.7582C29.9239 33.708 30.6773 33.5331 31.3362 33.2769C32.0176 33.0115 32.5953 32.6574 33.1721 32.0815C33.748 31.5055 34.1022 30.9271 34.3675 30.2457C34.6237 29.5868 34.7995 28.8334 34.8489 27.7301C34.8991 26.6242 34.9109 26.2718 34.9109 23.4574C34.9109 20.643 34.8991 20.2897 34.8489 19.1847C34.7987 18.0814 34.6237 17.3279 34.3675 16.6691C34.1022 15.9877 33.748 15.4101 33.1721 14.8333C32.5961 14.2574 32.0176 13.9024 31.337 13.6379C30.6773 13.3817 29.9239 13.2059 28.8214 13.1565C27.7163 13.1063 27.363 13.0938 24.5485 13.0938C21.7331 13.0938 21.3807 13.1055 20.2748 13.1565Z" fill="#1E22AA"/>
</svg>