<svg xmlns="http://www.w3.org/2000/svg" width="48" height="48" viewBox="0 0 48 48" fill="none">
	<circle cx="24" cy="24" r="23.5" stroke="#1E22AA"/>
	<path d="M25.1013 32.7051L19.9536 32.6104C18.2869 32.5774 16.6161 32.6433 14.9821 32.3015C12.4963 31.7908 12.3202 29.2868 12.136 27.1865C11.8821 24.2337 11.9804 21.2272 12.4595 18.299C12.73 16.656 13.7945 15.6756 15.4407 15.5689C20.9979 15.1817 26.5921 15.2276 32.1369 15.4083C32.7225 15.4248 33.3122 15.5153 33.8896 15.6183C36.74 16.1208 36.8095 18.9584 36.9943 21.347C37.1785 23.7604 37.1007 26.1861 36.7485 28.583C36.466 30.5676 35.9254 32.2319 33.6439 32.3925C30.7853 32.6026 27.9924 32.7717 25.1258 32.7179C25.126 32.7051 25.1095 32.7051 25.1013 32.7051ZM22.075 27.6807C24.2291 26.4369 26.3422 25.2138 28.484 23.9783C26.3258 22.7345 24.2168 21.5114 22.075 20.2759V27.6807Z" fill="#1E22AA"/>
</svg>